<?xml version="1.0" encoding="UTF-8" standalone="no"?>
<!-- Created with Inkscape (http://www.inkscape.org/) -->

<svg
   width="115mm"
   height="115mm"
   viewBox="0 0 115 115"
   version="1.1"
   id="svg5"
   inkscape:export-filename="edit_icon.png"
   inkscape:export-xdpi="2.5699999"
   inkscape:export-ydpi="2.5699999"
   inkscape:version="1.2.2 (b0a8486541, 2022-12-01)"
   sodipodi:docname="settings_icon.svg"
   xmlns:inkscape="http://www.inkscape.org/namespaces/inkscape"
   xmlns:sodipodi="http://sodipodi.sourceforge.net/DTD/sodipodi-0.dtd"
   xmlns="http://www.w3.org/2000/svg"
   xmlns:svg="http://www.w3.org/2000/svg">
  <sodipodi:namedview
     id="namedview7"
     pagecolor="#ffffff"
     bordercolor="#000000"
     borderopacity="0.25"
     inkscape:showpageshadow="2"
     inkscape:pageopacity="0.0"
     inkscape:pagecheckerboard="0"
     inkscape:deskcolor="#d1d1d1"
     inkscape:document-units="mm"
     showgrid="false"
     inkscape:zoom="1.4142136"
     inkscape:cx="249.60869"
     inkscape:cy="190.21172"
     inkscape:window-width="1920"
     inkscape:window-height="1025"
     inkscape:window-x="0"
     inkscape:window-y="23"
     inkscape:window-maximized="1"
     inkscape:current-layer="layer1"
     borderlayer="false"
     showguides="true" />
  <defs
     id="defs2" />
  <g
     inkscape:label="cogwheel"
     inkscape:groupmode="layer"
     id="layer1">
    <path
       id="path18597"
       style="fill:#000000;fill-opacity:1;stroke:#ffffff;stroke-width:12.8797;stroke-linecap:round;stroke-linejoin:round;stroke-dasharray:none;stroke-dashoffset:64.2671;stroke-opacity:1;paint-order:markers fill stroke;stop-color:#000000"
       d="m 193.85387,-7.8236936 v 12.91437 a 35.086709,35.086709 0 0 0 -12.49672,5.3218196 l -9.23486,-9.2348497 -10.08623,10.0862407 9.43341,9.43341 a 35.086709,35.086709 0 0 0 -4.81432,12.2976 h -13.62043 v 14.26439 h 13.90052 a 35.086709,35.086709 0 0 0 5.09664,11.73519 l -9.99582,9.99582 10.08623,10.08624 10.1295,-10.12949 a 35.086709,35.086709 0 0 0 11.60208,4.75941 v 14.371427 h 14.26382 V 73.760257 a 35.086709,35.086709 0 0 0 0.81755,-0.15475 35.086709,35.086709 0 0 0 10.89435,-4.54865 l 10.01968,10.01968 10.08568,-10.08624 -9.82112,-9.8211 a 35.086709,35.086709 0 0 0 5.20646,-11.90991 h 13.61656 v -14.26439 h -13.31317 a 35.086709,35.086709 0 0 0 -0.15086,-0.77317 35.086709,35.086709 0 0 0 -4.77993,-11.71578 l 9.24206,-9.24206 -10.08568,-10.0862407 -9.12004,9.1200397 a 35.086709,35.086709 0 0 0 -0.0144,-0.01 35.086709,35.086709 0 0 0 -12.59712,-5.2707996 v -12.8406 z" />
    <path
       id="path11954"
       style="fill:#c0c0c0;fill-opacity:1;stroke:#c0c0c0;stroke-width:12;stroke-linecap:round;stroke-linejoin:round;stroke-dasharray:none;stroke-dashoffset:64.2671;stroke-opacity:1;paint-order:markers fill stroke;stop-color:#000000"
       d="m 52.834502,12.064897 v 12.03234 a 32.690342,32.690342 0 0 0 -11.643217,4.958355 l -8.604126,-8.604127 -9.397359,9.39736 8.789128,8.789128 A 32.690342,32.690342 0 0 0 27.493413,50.095652 H 14.803232 v 13.290144 h 12.951147 a 32.690342,32.690342 0 0 0 4.748548,10.9337 l -9.313127,9.313127 9.397359,9.397359 9.437667,-9.437667 a 32.690342,32.690342 0 0 0 10.809676,4.434355 v 13.38988 H 66.124131 V 88.076796 a 32.690342,32.690342 0 0 0 0.76171,-0.144177 32.690342,32.690342 0 0 0 10.15028,-4.237985 l 9.33535,9.335348 9.39684,-9.397359 -9.15034,-9.150346 a 32.690342,32.690342 0 0 0 4.85086,-11.096481 H 104.15541 V 50.095652 H 91.751511 a 32.690342,32.690342 0 0 0 -0.14056,-0.72037 32.690342,32.690342 0 0 0 -4.45348,-10.915613 l 8.61084,-8.610844 -9.39684,-9.39736 -8.49715,8.497157 a 32.690342,32.690342 0 0 0 -0.0134,-0.0088 32.690342,32.690342 0 0 0 -11.73675,-4.910812 V 12.065414 Z m 6.777359,19.71456 a 24.282671,24.282671 0 0 1 24.28276,24.282239 24.282671,24.282671 0 0 1 -24.28276,24.282755 24.282671,24.282671 0 0 1 -24.28275,-24.282755 24.282671,24.282671 0 0 1 24.28275,-24.282239 z" />
  </g>
  <g
     inkscape:groupmode="layer"
     id="layer2"
     inkscape:label="pencil">
    <rect
       style="fill:#ffffff;fill-opacity:1;stroke:#ffffff;stroke-width:11.1206;stroke-linecap:round;stroke-linejoin:round;stroke-dasharray:none;stroke-dashoffset:64.2671;stroke-opacity:1;paint-order:markers fill stroke;stop-color:#000000"
       id="rect18670"
       width="39.185055"
       height="86.836403"
       x="329.62372"
       y="-140.55524"
       transform="matrix(0.70221538,0.71196458,-0.69517985,0.71883585,0,0)"
       inkscape:transform-center-x="13.454678"
       inkscape:transform-center-y="-8.2806217" />
    <path
       sodipodi:type="star"
       style="fill:#ffffff;fill-opacity:1;stroke:#ffffff;stroke-width:13.6434;stroke-linecap:round;stroke-linejoin:round;stroke-dasharray:none;stroke-dashoffset:64.2671;stroke-opacity:1;paint-order:markers fill stroke;stop-color:#000000"
       id="path18672"
       inkscape:flatsided="true"
       sodipodi:sides="3"
       sodipodi:cx="33.433308"
       sodipodi:cy="105.50066"
       sodipodi:r1="26.82107"
       sodipodi:r2="13.410535"
       sodipodi:arg1="-0.52359878"
       sodipodi:arg2="0.52359878"
       inkscape:rounded="0"
       inkscape:randomized="0"
       d="M 56.661035,92.090129 33.433308,132.32173 10.20558,92.090129 Z"
       inkscape:transform-center-y="28.683738"
       transform="matrix(0.58742236,0.59557788,-0.58167213,0.60146558,315.87343,135.28518)"
       inkscape:transform-center-x="49.139318" />
    <path
       style="fill:#000000;fill-opacity:1;stroke:#ffffff;stroke-width:6.6575;stroke-linecap:round;stroke-linejoin:round;stroke-dasharray:none;stroke-dashoffset:64.2671;stroke-opacity:1;paint-order:markers fill stroke;stop-color:#000000"
       d="m 263.67461,214.57614 14.38991,14.58971 -18.41761,5.1525 z"
       id="path18674"
       inkscape:transform-center-x="57.351677"
       inkscape:transform-center-y="37.362634" />
    <rect
       style="fill:#ffffff;fill-opacity:1;stroke:#000000;stroke-width:9.97235;stroke-linecap:round;stroke-linejoin:round;stroke-dasharray:none;stroke-dashoffset:64.2671;stroke-opacity:1;paint-order:markers fill stroke;stop-color:#000000"
       id="rect790"
       width="35.142967"
       height="77.860802"
       x="330.22134"
       y="-128.20901"
       transform="rotate(44.718189)"
       inkscape:transform-center-x="12.210485"
       inkscape:transform-center-y="-7.3394216" />
    <path
       sodipodi:type="star"
       style="fill:#ffffff;fill-opacity:1;stroke:#000000;stroke-width:13.6434;stroke-linecap:round;stroke-linejoin:round;stroke-dasharray:none;stroke-dashoffset:64.2671;stroke-opacity:1;paint-order:markers fill stroke;stop-color:#000000"
       id="path1628"
       inkscape:flatsided="true"
       sodipodi:sides="3"
       sodipodi:cx="33.433308"
       sodipodi:cy="105.50066"
       sodipodi:r1="26.82107"
       sodipodi:r2="13.410535"
       sodipodi:arg1="-0.52359878"
       sodipodi:arg2="0.52359878"
       inkscape:rounded="0"
       inkscape:randomized="0"
       d="M 56.661035,92.090129 33.433308,132.32173 10.20558,92.090129 Z"
       inkscape:transform-center-y="25.423408"
       transform="matrix(0.53310004,0.52788156,-0.52788156,0.53310004,312.78368,142.70259)"
       inkscape:transform-center-x="44.595127" />
    <path
       style="fill:#000000;fill-opacity:1;stroke:none;stroke-width:5.97089;stroke-linecap:round;stroke-linejoin:round;stroke-dasharray:none;stroke-dashoffset:64.2671;stroke-opacity:1;paint-order:markers fill stroke;stop-color:#000000"
       d="m 265.41199,212.98094 13.05919,12.93137 -16.71443,4.56684 z"
       id="path3136"
       inkscape:transform-center-x="52.048042"
       inkscape:transform-center-y="33.115806" />
    <rect
       style="fill:#ffffff;fill-opacity:1;stroke:#ffffff;stroke-width:2.05997;stroke-linecap:round;stroke-linejoin:round;stroke-dasharray:none;stroke-dashoffset:64.2671;stroke-opacity:1;paint-order:markers fill stroke;stop-color:#000000"
       id="rect4294"
       width="46.384132"
       height="7.3974204"
       x="324.44284"
       y="-110.49072"
       transform="matrix(0.70495781,0.70924924,-0.69794778,0.71614866,0,0)"
       inkscape:transform-center-x="1.2420668"
       inkscape:transform-center-y="-16.83399" />
  </g>
</svg>
