<?xml version="1.0" encoding="UTF-8" standalone="no"?>
<!-- Created with Inkscape (http://www.inkscape.org/) -->

<svg
   width="115mm"
   height="115mm"
   viewBox="0 0 115 115"
   version="1.1"
   id="svg5"
   inkscape:export-filename="edit_icon.png"
   inkscape:export-xdpi="2.5699999"
   inkscape:export-ydpi="2.5699999"
   inkscape:version="1.2.2 (b0a8486541, 2022-12-01)"
   sodipodi:docname="edit_icon.svg"
   xmlns:inkscape="http://www.inkscape.org/namespaces/inkscape"
   xmlns:sodipodi="http://sodipodi.sourceforge.net/DTD/sodipodi-0.dtd"
   xmlns="http://www.w3.org/2000/svg"
   xmlns:svg="http://www.w3.org/2000/svg">
  <sodipodi:namedview
     id="namedview7"
     pagecolor="#ffffff"
     bordercolor="#000000"
     borderopacity="0.25"
     inkscape:showpageshadow="2"
     inkscape:pageopacity="0.0"
     inkscape:pagecheckerboard="0"
     inkscape:deskcolor="#d1d1d1"
     inkscape:document-units="mm"
     showgrid="false"
     inkscape:zoom="0.70710678"
     inkscape:cx="-304.05592"
     inkscape:cy="237.58788"
     inkscape:window-width="1920"
     inkscape:window-height="1025"
     inkscape:window-x="0"
     inkscape:window-y="23"
     inkscape:window-maximized="1"
     inkscape:current-layer="layer2"
     borderlayer="false"
     showguides="true" />
  <defs
     id="defs2" />
  <g
     inkscape:label="cogwheel"
     inkscape:groupmode="layer"
     id="layer1">
    <path
       id="path18597"
       style="fill:#000000;fill-opacity:1;stroke:#ffffff;stroke-width:12.8797;stroke-linecap:round;stroke-linejoin:round;stroke-dasharray:none;stroke-dashoffset:64.2671;stroke-opacity:1;paint-order:markers fill stroke;stop-color:#000000"
       d="m 193.85387,-7.8236936 v 12.91437 a 35.086709,35.086709 0 0 0 -12.49672,5.3218196 l -9.23486,-9.2348497 -10.08623,10.0862407 9.43341,9.43341 a 35.086709,35.086709 0 0 0 -4.81432,12.2976 h -13.62043 v 14.26439 h 13.90052 a 35.086709,35.086709 0 0 0 5.09664,11.73519 l -9.99582,9.99582 10.08623,10.08624 10.1295,-10.12949 a 35.086709,35.086709 0 0 0 11.60208,4.75941 v 14.371427 h 14.26382 V 73.760257 a 35.086709,35.086709 0 0 0 0.81755,-0.15475 35.086709,35.086709 0 0 0 10.89435,-4.54865 l 10.01968,10.01968 10.08568,-10.08624 -9.82112,-9.8211 a 35.086709,35.086709 0 0 0 5.20646,-11.90991 h 13.61656 v -14.26439 h -13.31317 a 35.086709,35.086709 0 0 0 -0.15086,-0.77317 35.086709,35.086709 0 0 0 -4.77993,-11.71578 l 9.24206,-9.24206 -10.08568,-10.0862407 -9.12004,9.1200397 a 35.086709,35.086709 0 0 0 -0.0144,-0.01 35.086709,35.086709 0 0 0 -12.59712,-5.2707996 v -12.8406 z" />
    <path
       id="path11954"
       style="fill:#c0c0c0;fill-opacity:1;stroke:#c0c0c0;stroke-width:12;stroke-linecap:round;stroke-linejoin:round;stroke-dasharray:none;stroke-dashoffset:64.2671;stroke-opacity:1;paint-order:markers fill stroke;stop-color:#000000"
       d="m 140.67617,-114.9351 v 12.03234 a 32.690342,32.690342 0 0 0 -11.64322,4.958352 l -8.60412,-8.604122 -9.39736,9.397355 8.78912,8.789128 a 32.690342,32.690342 0 0 0 -4.48551,11.457699 H 102.6449 v 13.290144 h 12.95115 a 32.690342,32.690342 0 0 0 4.74854,10.9337 l -9.31312,9.313127 9.39736,9.397359 9.43766,-9.437667 a 32.690342,32.690342 0 0 0 10.80968,4.434355 v 13.38988 h 13.28963 v -13.339754 a 32.690342,32.690342 0 0 0 0.76171,-0.144177 32.690342,32.690342 0 0 0 10.15028,-4.237985 l 9.33535,9.335348 9.39684,-9.397359 -9.15034,-9.150346 a 32.690342,32.690342 0 0 0 4.85086,-11.096481 h 12.68658 v -13.290144 h -12.4039 a 32.690342,32.690342 0 0 0 -0.14056,-0.72037 32.690342,32.690342 0 0 0 -4.45348,-10.915613 l 8.61084,-8.610844 -9.39684,-9.397355 -8.49715,8.497152 a 32.690342,32.690342 0 0 0 -0.0134,-0.0088 32.690342,32.690342 0 0 0 -11.73675,-4.910812 v -11.9636 z m 6.77736,19.714557 a 24.282671,24.282671 0 0 1 24.28276,24.282239 24.282671,24.282671 0 0 1 -24.28276,24.282755 24.282671,24.282671 0 0 1 -24.28275,-24.282755 24.282671,24.282671 0 0 1 24.28275,-24.282239 z" />
  </g>
  <g
     inkscape:groupmode="layer"
     id="layer2"
     inkscape:label="pencil">
    <rect
       style="fill:none;fill-opacity:1;stroke:#c0c0c0;stroke-width:8.98428;stroke-linecap:round;stroke-linejoin:round;stroke-dasharray:none;stroke-dashoffset:64.2671;stroke-opacity:1;paint-order:markers fill stroke;stop-color:#000000"
       id="rect790"
       width="36.120232"
       height="61.486309"
       x="63.95681"
       y="-48.156284"
       transform="matrix(0.69702753,0.71704437,-0.71521385,0.69890568,0,0)"
       inkscape:transform-center-x="11.822543"
       inkscape:transform-center-y="-8.3368622" />
    <path
       sodipodi:type="star"
       style="fill:#c0c0c0;fill-opacity:1;stroke:#c0c0c0;stroke-width:13.6434;stroke-linecap:round;stroke-linejoin:round;stroke-dasharray:none;stroke-dashoffset:64.2671;stroke-opacity:1;paint-order:markers fill stroke;stop-color:#000000"
       id="path1628"
       inkscape:flatsided="true"
       sodipodi:sides="3"
       sodipodi:cx="33.433308"
       sodipodi:cy="105.50066"
       sodipodi:r1="26.82107"
       sodipodi:r2="13.410535"
       sodipodi:arg1="-0.52359878"
       sodipodi:arg2="0.52359878"
       inkscape:rounded="0"
       inkscape:randomized="0"
       d="M 56.661035,92.090129 33.433308,132.32173 10.20558,92.090129 Z"
       inkscape:transform-center-y="24.397563"
       transform="matrix(0.52354806,0.53735652,-0.53735652,0.52354806,67.069633,14.129922)"
       inkscape:transform-center-x="45.263743" />
    <rect
       style="fill:none;fill-opacity:1;stroke:#c0c0c0;stroke-width:8.98428;stroke-linecap:round;stroke-linejoin:round;stroke-dasharray:none;stroke-dashoffset:64.2671;stroke-opacity:1;paint-order:markers fill stroke;stop-color:#000000"
       id="rect28158"
       width="36.120232"
       height="61.486309"
       x="63.95681"
       y="-48.156284"
       transform="matrix(0.69702753,0.71704437,-0.71521385,0.69890568,0,0)"
       inkscape:transform-center-x="11.822542"
       inkscape:transform-center-y="-8.3368615" />
    <rect
       style="fill:#c0c0c0;fill-opacity:1;stroke:#c0c0c0;stroke-width:4.9648;stroke-linecap:round;stroke-linejoin:round;stroke-dasharray:none;stroke-dashoffset:64.2671;stroke-opacity:1;paint-order:markers fill stroke;stop-color:#000000"
       id="rect28160"
       width="34.189209"
       height="19.837038"
       x="63.212231"
       y="-49.59148"
       transform="matrix(0.70368894,0.71050818,-0.73062702,0.6827768,0,0)"
       inkscape:transform-center-x="10.103676"
       inkscape:transform-center-y="-8.9796807" />
  </g>
</svg>
